<?xml version="1.0" encoding="UTF-8" standalone="no"?>
<svg
   width="16.609926"
   height="13.785164"
   viewBox="0 0 4.3947095 3.6473247"
   version="1.1"
   id="svg4268"
   xml:space="preserve"
   xmlns="http://www.w3.org/2000/svg"
   xmlns:svg="http://www.w3.org/2000/svg"
   xmlns:rdf="http://www.w3.org/1999/02/22-rdf-syntax-ns#"
   xmlns:cc="http://creativecommons.org/ns#"
   xmlns:dc="http://purl.org/dc/elements/1.1/"><defs
     id="defs4262" /><metadata
     id="metadata4265"><rdf:RDF><cc:Work
         rdf:about=""><dc:format>image/svg+xml</dc:format><dc:type
           rdf:resource="http://purl.org/dc/dcmitype/StillImage" /></cc:Work></rdf:RDF></metadata><g
     id="file"
     style="display:inline"
     transform="translate(-24.95247,15.330101)"><g
       style="fill:#000000"
       id="g3"
       transform="matrix(0.00462601,0,0,0.00427789,24.95247,-15.538434)"><g
         id="g1">
	<path
   d="M 857.7,141.3 C 827.6,111.2 792.6,87.8 753.4,71.9 715.6,56.6 675.7,48.7 634.7,48.7 593.8,48.7 553.8,56.4 516,71.6 476.9,87.4 441.8,110.5 411.7,140.4 L 73.1,478.3 C 49.3,501.9 30.9,529.4 18.3,560.2 6.2,589.9 0,621.3 0,653.6 c 0,32.1 6.1,63.4 18.1,93.1 12.4,30.7 30.7,58.2 54.3,81.899 23.6,23.7 51.2,42 81.9,54.5 29.7,12.101 61.1,18.2 93.3,18.2 32.2,0 63.6,-6.1 93.3,-18.1 30.8,-12.5 58.399,-30.8 82.1,-54.4 l 269.101,-268 c 17.3,-17.2 30.6,-37.3 39.699,-59.7 8.801,-21.6 13.2,-44.5 13.2,-67.899 0,-48.2 -18.8,-93.2 -52.899,-127 -34,-34.2 -79.2,-53.1 -127.301,-53.3 -48.199,-0.1 -93.5,18.6 -127.6,52.7 L 269.6,473.3 c -8.5,8.5 -13.1,19.7 -13.1,31.601 0,11.899 4.6,23.199 13.1,31.6 l 0.7,0.7 c 17.4,17.5 45.8,17.5 63.3,0.1 l 168,-167.5 c 35.1,-34.8 92.1,-35 127.199,-0.399 16.9,16.8 26.101,39.3 26.101,63.399 0,24.3 -9.4,47.101 -26.5,64.101 l -269,268 c -0.5,0.5 -0.9,0.899 -1.2,1.5 -29.7,28.899 -68.9,44.699 -110.5,44.5 -41.9,-0.2 -81.2,-16.5 -110.6,-46 -14.7,-15 -26.1,-32.5 -34,-52 C 95.5,694 91.7,674 91.7,653.6 c 0,-41.8 16.1,-80.899 45.4,-110.3 0.4,-0.3 0.7,-0.6 1.1,-0.899 l 337.9,-337.8 c 0.3,-0.3 0.6,-0.7 0.899,-1.1 21.4,-21 46.3,-37.4 74,-48.5 27,-10.8 55.4,-16.2 84.601,-16.2 29.199,0 57.699,5.6 84.6,16.4 27.9,11.3 52.9,27.8 74.3,49.1 21.4,21.4 37.9,46.4 49.2,74.3 10.9,26.9 16.4,55.4 16.4,84.6 0,29.3 -5.5,57.9 -16.5,85 -11.301,28 -28,53.2 -49.5,74.8 l -233.5,232.8 c -8.5,8.5 -13.2,19.7 -13.2,31.7 0,12 4.7,23.2 13.1,31.6 l 0.5,0.5 c 17.4,17.4 45.8,17.4 63.2,0 L 857.5,586.9 C 887.601,556.8 911,521.7 926.9,482.6 942.3,444.8 950,404.9 950,363.9 950,323 942.2,283.1 926.9,245.4 911.101,206.3 887.8,171.3 857.7,141.3 Z"
   id="path1-2" />
</g></g></g></svg>
